<svg height="512pt" viewBox="0 -139 512 512" width="512pt" xmlns="http://www.w3.org/2000/svg"><path d="m512 209c0-36.53125-26.257812-67.027344-60.886719-73.648438-6.710937-51.472656-50.839843-91.351562-104.113281-91.351562h-45v15h-31v-15h-30v60h30v-15h31v45h-124v-89c0-24.8125-20.1875-45-45-45s-45 20.1875-45 45v3h-88v124h.0234375c-.0039063.335938-.0234375.664062-.0234375 1 0 33.085938 26.914062 60 60 60 15.84375 0 30.261719-6.183594 40.996094-16.25h52.257812l1.449219 7.25h190.730469c8.523437 5.976562 18.886718 9.5 30.066406 9.5s21.542969-3.523438 30.066406-9.5h106.433594zm-180-135h15c36.21875 0 66.523438 25.808594 73.492188 60h-21.636719c-7.039063-3.511719-14.96875-5.5-23.355469-5.5s-16.316406 1.988281-23.355469 5.5h-20.144531zm-244 4v41.957031c-8.363281-4.433593-17.890625-6.957031-28-6.957031-10.925781 0-21.167969 2.949219-30 8.070312v-43.070312zm-28 125c-16.542969 0-30-13.457031-30-30s13.457031-30 30-30 30 13.457031 30 30-13.457031 30-30 30zm58.390625-16.25c1.042969-4.417969 1.609375-9.019531 1.609375-13.75 0-5.308594-.699219-10.453125-2-15.355469v-112.644531c0-8.269531 6.730469-15 15-15s15 6.730469 15 15v89h-11.296875l10.550781 52.75zm54.90625-22.75h152.542969c-1.832032 5.335938-2.839844 11.050781-2.839844 17 0 4.484375.566406 8.839844 1.632812 13h-145.335937zm202.203125 39.5c-12.40625 0-22.5-10.09375-22.5-22.5s10.09375-22.5 22.5-22.5 22.5 10.09375 22.5 22.5-10.09375 22.5-22.5 22.5zm50.867188-9.5c1.066406-4.160156 1.632812-8.515625 1.632812-13 0-5.949219-1.007812-11.664062-2.839844-17h11.839844c19.554688 0 36.238281 12.539062 42.429688 30zm0 0"/></svg>